<svg width="100" height="100" viewBox="0 0 100 100" fill="none" xmlns="http://www.w3.org/2000/svg">
<path d="M100 50C100 77.6142 77.6142 100 50 100C22.3858 100 0 77.6142 0 50C0 22.3858 22.3858 0 50 0C77.6142 0 100 22.3858 100 50ZM15 50C15 69.33 30.67 85 50 85C69.33 85 85 69.33 85 50C85 30.67 69.33 15 50 15C30.67 15 15 30.67 15 50Z" fill="#D9D9D9"/>
<path d="M92.5 50C96.6421 50 100.058 53.3763 99.4385 57.472C98.8347 61.4673 97.7474 65.384 96.194 69.1342C93.6812 75.2005 89.9983 80.7124 85.3553 85.3553C80.7124 89.9983 75.2004 93.6812 69.1342 96.194C65.384 97.7474 61.4673 98.8347 57.472 99.4385C53.3763 100.058 50 96.6421 50 92.5V92.5C50 88.3579 53.3954 85.0803 57.4428 84.1995C59.4732 83.7576 61.465 83.1348 63.3939 82.3358C67.6403 80.5769 71.4987 77.9988 74.7487 74.7487C77.9988 71.4987 80.5769 67.6403 82.3358 63.3939C83.1348 61.465 83.7576 59.4732 84.1995 57.4428C85.0803 53.3954 88.3579 50 92.5 50V50Z" fill="#2570EB"/>
</svg>
