<svg width="100" height="100" viewBox="0 0 100 100" fill="none" xmlns="http://www.w3.org/2000/svg">
<path d="M93.75 50C97.2018 50 100.04 52.809 99.6099 56.2339C98.6448 63.914 95.9054 71.2953 91.5735 77.7785C86.0794 86.001 78.2705 92.4096 69.1342 96.194C59.9979 99.9784 49.9445 100.969 40.2455 99.0393C30.5464 97.11 21.6373 92.348 14.6447 85.3553C7.65203 78.3627 2.88999 69.4536 0.960733 59.7545C-0.968525 50.0554 0.021645 40.0021 3.80603 30.8658C7.59042 21.7295 13.999 13.9206 22.2215 8.42651C28.7047 4.09456 36.086 1.35516 43.7661 0.390095C47.191 -0.0402636 50 2.79822 50 6.25V6.25C50 9.70178 47.1828 12.447 43.7788 13.0196C38.5758 13.8949 33.592 15.8626 29.1661 18.8199C22.9993 22.9404 18.1928 28.7971 15.3545 35.6494C12.5162 42.5016 11.7736 50.0416 13.2205 57.3159C14.6675 64.5902 18.239 71.272 23.4835 76.5165C28.728 81.761 35.4098 85.3325 42.6841 86.7794C49.9584 88.2264 57.4984 87.4838 64.3506 84.6455C71.2029 81.8072 77.0596 77.0007 81.1801 70.8339C84.1374 66.408 86.1051 61.4242 86.9804 56.2212C87.553 52.8173 90.2982 50 93.75 50V50Z" fill="#222222"/>
</svg>
